<svg width="67" height="67" viewBox="0 0 67 67" fill="none" xmlns="http://www.w3.org/2000/svg">
<path d="M31.4854 61.1757C31.4847 61.1757 31.4856 61.1757 31.485 61.1757C22.7977 61.1757 15.4886 60.7681 9.79385 60.2686C6.28354 59.9606 4.08563 56.3267 5.43139 53.07C9.16428 44.0361 13.773 35.112 19.1796 26.457C22.8598 20.5656 26.4125 15.5998 29.4167 11.6929C31.5119 8.96815 35.6108 8.96736 37.7062 11.692C40.6955 15.5794 44.2292 20.517 47.8911 26.3722C53.27 34.9729 57.8615 43.8409 61.5882 52.8191C62.9413 56.0787 60.7349 59.718 57.2192 60.027C48.5378 60.79 39.9102 61.1757 31.4854 61.1757Z" fill="#FF4347"/>
<path d="M34.7891 9.79423C33.7697 10.0622 32.8155 10.7015 32.1099 11.7105C29.3538 15.652 26.095 20.6622 22.7194 26.606C17.7596 35.3378 13.5316 44.3411 10.1079 53.4543C8.98884 56.4313 10.5398 59.721 13.2373 60.5435C12.0312 60.4564 10.8834 60.3637 9.79401 60.2685C6.28319 59.9604 4.08619 56.327 5.43103 53.0693C9.16406 44.0365 13.7734 35.1122 19.18 26.4571C22.8603 20.5661 26.4125 15.5993 29.417 11.6934C30.7433 9.96827 32.8739 9.33491 34.7891 9.79423Z" fill="#CF4655"/>
<path d="M57.8164 35.6017V35.2229C57.8164 33.8871 58.8507 32.7794 60.1835 32.6879L64.283 32.4067C65.7513 32.306 66.9978 33.47 66.9978 34.9417V35.8829C66.9978 37.3546 65.7512 38.5186 64.283 38.4179L60.1835 38.1367C58.8508 38.0453 57.8164 36.9376 57.8164 35.6017Z" fill="#FF4347"/>
<path d="M54.6511 23.417L54.4618 23.0889C53.7939 21.932 54.1358 20.4555 55.2442 19.71L58.6537 17.4168C59.875 16.5954 61.5364 16.9802 62.2724 18.2547L62.743 19.0699C63.4789 20.3444 62.9812 21.9757 61.6593 22.6227L57.9686 24.4288C56.7687 25.0161 55.319 24.5739 54.6511 23.417Z" fill="#FF4347"/>
<path d="M45.8216 14.4464L45.4935 14.257C44.3366 13.5891 43.8945 12.1395 44.4817 10.9396L46.2878 7.24886C46.9348 5.92692 48.5661 5.42939 49.8407 6.16522L50.6558 6.63579C51.9304 7.37174 52.3151 9.03313 51.4937 10.2544L49.2005 13.664C48.455 14.7724 46.9785 15.1143 45.8216 14.4464Z" fill="#FF4347"/>
<path d="M9.18136 35.6017V35.2229C9.18136 33.8871 8.14704 32.7794 6.81424 32.6879L2.71481 32.4067C1.24657 32.306 0 33.47 0 34.9417V35.8829C0 37.3546 1.24657 38.5186 2.71481 38.4179L6.81424 38.1367C8.14691 38.0453 9.18136 36.9376 9.18136 35.6017Z" fill="#FF4347"/>
<path d="M12.343 23.417L12.5324 23.0889C13.2003 21.932 12.8584 20.4555 11.75 19.71L8.34044 17.4168C7.11913 16.5954 5.45773 16.9802 4.72178 18.2547L4.25121 19.0699C3.51526 20.3444 4.01292 21.9757 5.33486 22.6227L9.02562 24.4288C10.2255 25.0161 11.6751 24.5739 12.343 23.417Z" fill="#FF4347"/>
<path d="M21.1754 14.4464L21.5034 14.257C22.6604 13.5891 23.1024 12.1395 22.5152 10.9396L20.7091 7.24886C20.0621 5.92692 18.4309 5.42939 17.1563 6.16522L16.3412 6.63579C15.0666 7.37174 14.6819 9.03313 15.5033 10.2544L17.7964 13.664C18.542 14.7724 20.0184 15.1143 21.1754 14.4464Z" fill="#FF4347"/>
<path d="M32.048 23.5705C33.0255 23.4723 34.003 23.4723 34.9806 23.5705C36.2173 23.695 37.1641 24.7279 37.2098 25.97C37.3588 30.033 37.3588 34.0961 37.2098 38.1591C37.1642 39.4012 36.2173 40.4342 34.9806 40.5586C34.003 40.6568 33.0255 40.6568 32.048 40.5586C30.8113 40.4341 29.8645 39.4012 29.8188 38.1591C29.6698 34.0961 29.6698 30.033 29.8188 25.97C29.8645 24.7277 30.8113 23.6948 32.048 23.5705Z" fill="white"/>
<path d="M32.1188 45.0177C33.0491 44.9733 33.9794 44.9733 34.9096 45.0177C36.1917 45.0791 37.2213 46.1111 37.2791 47.3932C37.3355 48.6432 37.3355 49.8932 37.2791 51.1433C37.2213 52.4254 36.1917 53.4574 34.9096 53.5188C33.9794 53.5633 33.0491 53.5633 32.1188 53.5188C30.8368 53.4574 29.8072 52.4254 29.7493 51.1433C29.6929 49.8933 29.6929 48.6433 29.7493 47.3932C29.8072 46.1111 30.8368 45.0791 32.1188 45.0177Z" fill="white"/>
</svg>
